<?xml version="1.0" encoding="UTF-8" standalone="no"?><!-- Generator: Gravit.io --><svg xmlns="http://www.w3.org/2000/svg" xmlns:xlink="http://www.w3.org/1999/xlink" style="isolation:isolate" viewBox="57.99 189 789 784" width="789pt" height="784pt"><defs><clipPath id="_clipPath_AA3QCJ613jEqeO66GnMwTXhfepIvGzW3"><rect x="57.99" y="189" width="789" height="784"/></clipPath></defs><g clip-path="url(#_clipPath_AA3QCJ613jEqeO66GnMwTXhfepIvGzW3)"><g style="isolation:isolate"/><path d=" M 846.99 581 C 846.99 797.351 670.22 973 452.49 973 C 234.76 973 57.99 797.351 57.99 581 C 57.99 364.649 234.76 189 452.49 189 C 670.22 189 846.99 364.649 846.99 581 Z " fill="rgb(240,169,107)"/><g opacity="0.67"><path d=" M 285 334.191 C 280 334.191 275 335.931 271.25 339.44 L 270.94 339.756 L 250 359.524 L 249.06 360.453 C 242.15 366.205 240 374.261 240 381.446 L 240 410.802 C 234.535 405.861 227.406 403.106 220 403.072 C 203.55 403.072 190 416.465 190 432.724 C 190 448.983 203.55 462.376 220 462.376 C 227.66 462.376 234.69 459.411 240 454.657 L 240 697.416 C 234.532 692.483 227.403 689.735 220 689.706 C 203.55 689.706 190 703.099 190 719.358 C 190 735.617 203.55 749.01 220 749.01 C 227.66 749.01 234.69 746.045 240 741.291 L 240 780.51 C 240 788.081 243.28 795.8 249.06 801.523 L 270.94 822.21 L 271.25 822.526 C 278.71 829.584 291.29 829.584 298.75 822.526 L 299.06 822.21 L 320.94 801.523 C 326.748 795.662 330.001 787.785 330 779.581 L 330 381.466 C 330 373.895 326.72 366.176 320.94 360.463 L 299.06 339.756 L 298.75 339.45 C 295.016 336.021 290.096 334.136 285 334.181 L 285 334.191 Z  M 405 334.191 C 400 334.191 395 335.931 391.25 339.44 L 390.94 339.756 L 370 359.524 L 369.06 360.453 C 362.15 366.205 360 374.261 360 381.446 L 360 403.072 L 340 403.072 L 340 422.84 L 360 422.84 L 360 442.608 L 340 442.608 L 340 462.376 L 360 462.376 L 360 689.706 L 340 689.706 L 340 709.474 L 360 709.474 L 360 729.242 L 340 729.242 L 340 749.01 L 360 749.01 L 360 780.52 C 360 788.081 363.28 795.8 369.06 801.513 L 390.94 822.21 L 391.25 822.526 C 398.71 829.584 411.29 829.584 418.75 822.526 L 419.06 822.21 L 440.94 801.523 C 446.748 795.662 450.001 787.785 450 779.581 L 450 381.466 C 450 373.895 446.72 366.176 440.94 360.463 L 419.06 339.756 L 418.75 339.45 C 415.016 336.021 410.096 334.136 405 334.181 L 405 334.191 Z  M 525 334.191 C 520 334.191 515 335.931 511.25 339.44 L 510.94 339.756 L 490 359.524 L 489.06 360.453 C 482.15 366.205 480 374.261 480 381.446 L 480 403.072 L 460 403.072 L 460 422.84 L 480 422.84 L 480 442.608 L 460 442.608 L 460 462.376 L 480 462.376 L 480 689.706 L 460 689.706 L 460 709.474 L 480 709.474 L 480 729.242 L 460 729.242 L 460 749.01 L 480 749.01 L 480 780.52 C 480 788.081 483.28 795.8 489.06 801.513 L 510.94 822.21 L 511.25 822.526 C 518.71 829.584 531.29 829.584 538.75 822.526 L 539.06 822.21 L 560.94 801.523 C 566.748 795.662 570.001 787.785 570 779.581 L 570 381.466 C 570 373.895 566.72 366.176 560.94 360.463 L 539.06 339.756 L 538.75 339.45 C 535.016 336.021 530.096 334.136 525 334.181 L 525 334.191 Z  M 645 334.191 C 640 334.191 635 335.931 631.25 339.44 L 630.94 339.756 L 610 359.524 L 609.06 360.453 C 602.15 366.205 600 374.261 600 381.446 L 600 403.072 L 580 403.072 L 580 422.84 L 600 422.84 L 600 442.608 L 580 442.608 L 580 462.376 L 600 462.376 L 600 689.706 L 580 689.706 L 580 709.474 L 600 709.474 L 600 729.242 L 580 729.242 L 580 749.01 L 600 749.01 L 600 780.52 C 600 788.081 603.28 795.8 609.06 801.513 L 630.94 822.21 L 631.25 822.526 C 638.71 829.584 651.29 829.584 658.75 822.526 L 659.06 822.21 L 680.94 801.523 C 686.748 795.662 690.001 787.785 690 779.581 L 690 381.466 C 690 373.895 686.72 366.176 680.94 360.463 L 659.06 339.756 L 658.75 339.45 C 655.016 336.021 650.096 334.136 645 334.181 L 645 334.191 Z  M 285 353.959 L 306.88 374.35 L 307.18 374.656 C 309.18 376.732 310 379.252 310 381.456 L 310 779.581 C 310 783.139 309.18 785.225 307.19 787.31 L 306.88 787.616 L 285 808.017 L 263.12 787.626 L 262.82 787.32 C 260.82 785.244 260 782.724 260 780.52 L 260 381.456 C 260 379.134 261.72 375.388 261.88 375.279 L 262.5 374.963 L 262.81 374.656 L 285 353.959 Z  M 405 353.959 L 426.88 374.35 L 427.18 374.656 C 429.18 376.732 430 379.252 430 381.456 L 430 779.581 C 430 783.139 429.18 785.225 427.19 787.31 L 426.87 787.616 L 405 808.017 L 383.12 787.626 L 382.82 787.32 C 380.82 785.244 380 782.724 380 780.52 L 380 381.456 C 380 379.134 381.72 375.388 381.88 375.279 L 382.5 374.963 L 382.81 374.656 L 405 353.959 Z  M 525 353.959 L 546.88 374.35 L 547.18 374.656 C 549.18 376.732 550 379.252 550 381.456 L 550 779.581 C 550 783.139 549.18 785.225 547.19 787.31 L 546.87 787.616 L 525 808.017 L 503.12 787.626 L 502.82 787.32 C 500.82 785.244 500 782.724 500 780.52 L 500 381.456 C 500 379.134 501.72 375.388 501.88 375.279 L 502.5 374.963 L 502.81 374.656 L 525 353.959 Z  M 645 353.959 L 666.88 374.35 L 667.18 374.656 C 669.18 376.732 670 379.252 670 381.456 L 670 779.581 C 670 783.139 669.18 785.225 667.19 787.31 L 666.87 787.616 L 645 808.017 L 623.12 787.626 L 622.82 787.32 C 620.82 785.244 620 782.724 620 780.52 L 620 381.456 C 620 379.134 621.72 375.388 621.88 375.279 L 622.5 374.963 L 622.81 374.656 L 645 353.959 Z  M 220 422.84 C 225.63 422.84 230 427.169 230 432.724 C 230 438.289 225.62 442.608 220 442.608 C 214.37 442.608 210 438.279 210 432.724 C 210 427.16 214.38 422.84 220 422.84 Z  M 220 709.474 C 225.63 709.474 230 713.803 230 719.358 C 230 724.923 225.62 729.242 220 729.242 C 214.37 729.242 210 724.913 210 719.358 C 210 713.793 214.38 709.474 220 709.474 Z " fill="rgb(255,243,218)"/></g></g></svg>